G04 Layer_Color=15132400*
%FSLAX25Y25*%
%MOIN*%
G70*
G01*
G75*
%ADD17C,0.01000*%
%ADD25C,0.00984*%
%ADD26C,0.00787*%
%ADD27C,0.02000*%
G36*
X306905Y354811D02*
X294905Y354811D01*
X300905Y360811D01*
X306905Y354811D01*
D02*
G37*
D17*
X311898Y398858D02*
G03*
X311898Y398858I-1000J0D01*
G01*
X175413Y391512D02*
X211413D01*
X174413Y392512D02*
X175413Y391512D01*
X174413Y392512D02*
Y419512D01*
X211413D01*
Y391512D02*
Y419512D01*
X289463Y503937D02*
Y501938D01*
Y502937D01*
X283465D01*
Y503937D01*
Y501938D01*
X288463Y494940D02*
X289463Y495939D01*
Y497939D01*
X288463Y498939D01*
X284464D01*
X283465Y497939D01*
Y495939D01*
X284464Y494940D01*
X283465Y492941D02*
Y490941D01*
Y491941D01*
X289463D01*
X288463Y492941D01*
X330770Y505998D02*
X328771D01*
X329771D01*
Y501000D01*
X328771Y500000D01*
X327771D01*
X326772Y501000D01*
X336768Y500000D02*
X332770D01*
X336768Y503999D01*
Y504998D01*
X335769Y505998D01*
X333769D01*
X332770Y504998D01*
X181164Y505998D02*
X179165D01*
X180164D01*
Y501000D01*
X179165Y500000D01*
X178165D01*
X177165Y501000D01*
X183163Y500000D02*
X185163D01*
X184163D01*
Y505998D01*
X183163Y504998D01*
X221534Y413324D02*
X222533Y414324D01*
Y416323D01*
X221534Y417323D01*
X220534D01*
X219534Y416323D01*
Y414324D01*
X218535Y413324D01*
X217535D01*
X216535Y414324D01*
Y416323D01*
X217535Y417323D01*
X222533Y411325D02*
X216535D01*
X218535Y409325D01*
X216535Y407326D01*
X222533D01*
X216535Y405327D02*
Y403327D01*
Y404327D01*
X222533D01*
X221534Y405327D01*
X315022Y367203D02*
X314023Y368203D01*
X312023D01*
X311024Y367203D01*
Y363204D01*
X312023Y362205D01*
X314023D01*
X315022Y363204D01*
X317022Y362205D02*
Y368203D01*
X321020Y362205D01*
Y368203D01*
X327018Y362205D02*
X323020D01*
X327018Y366203D01*
Y367203D01*
X326019Y368203D01*
X324019D01*
X323020Y367203D01*
X283465Y409449D02*
X289463D01*
Y406450D01*
X288463Y405450D01*
X286464D01*
X285464Y406450D01*
Y409449D01*
Y407449D02*
X283465Y405450D01*
Y403451D02*
Y401451D01*
Y402451D01*
X289463D01*
X288463Y403451D01*
X271654Y409449D02*
X277652D01*
Y406450D01*
X276652Y405450D01*
X274653D01*
X273653Y406450D01*
Y409449D01*
Y407449D02*
X271654Y405450D01*
Y399452D02*
Y403451D01*
X275652Y399452D01*
X276652D01*
X277652Y400452D01*
Y402451D01*
X276652Y403451D01*
X252030Y371140D02*
X251030Y372140D01*
X249031D01*
X248031Y371140D01*
Y367141D01*
X249031Y366142D01*
X251030D01*
X252030Y367141D01*
X254030Y366142D02*
X256029D01*
X255029D01*
Y372140D01*
X254030Y371140D01*
X335707Y340686D02*
X336707Y341686D01*
Y343685D01*
X335707Y344685D01*
X331708D01*
X330709Y343685D01*
Y341686D01*
X331708Y340686D01*
X330709Y338687D02*
X336707D01*
X330709Y334688D01*
X336707D01*
X330709Y332689D02*
Y330690D01*
Y331689D01*
X336707D01*
X335707Y332689D01*
X230900Y402998D02*
Y398000D01*
X231900Y397000D01*
X233899D01*
X234899Y398000D01*
Y402998D01*
X236898Y397000D02*
X238897D01*
X237898D01*
Y402998D01*
X236898Y401998D01*
X212336Y385261D02*
X208337D01*
Y382262D01*
X210336D01*
X208337D01*
Y379263D01*
X214335D02*
X216334D01*
X215335D01*
Y385261D01*
X214335Y384261D01*
X258099Y401298D02*
X257099Y402298D01*
X255100D01*
X254100Y401298D01*
Y397300D01*
X255100Y396300D01*
X257099D01*
X258099Y397300D01*
X264097Y396300D02*
X260098D01*
X264097Y400299D01*
Y401298D01*
X263097Y402298D01*
X261098D01*
X260098Y401298D01*
D25*
X244783Y378740D02*
G03*
X244783Y378740I-492J0D01*
G01*
D26*
X243307Y365748D02*
Y374409D01*
X350905Y427311D02*
Y506811D01*
X340905Y427311D02*
X350905D01*
X340905D02*
Y506811D01*
X350905D01*
X170905Y427311D02*
Y506811D01*
X160906Y427311D02*
X170905D01*
X160906D02*
Y506811D01*
X170905D01*
X285039Y389567D02*
Y389961D01*
X289764Y389567D02*
Y389961D01*
X273228Y389567D02*
Y389961D01*
X277953Y389567D02*
Y389961D01*
X229134Y365748D02*
Y374409D01*
X243307D01*
X229134Y365748D02*
X243307D01*
X236614Y388583D02*
Y391929D01*
X238583D01*
X236614Y379724D02*
Y383071D01*
Y379724D02*
X238583D01*
X214035Y375079D02*
X219035D01*
X214035Y365079D02*
X219035D01*
X253543Y378740D02*
Y392913D01*
X262205Y378740D02*
Y392913D01*
X253543D02*
X262205D01*
X253543Y378740D02*
X262205D01*
D27*
X320905Y318811D02*
Y354811D01*
X265905D02*
X320905D01*
X190905D02*
X245905D01*
X190905Y318811D02*
Y354811D01*
Y318811D02*
X320905D01*
M02*
