G04 Layer_Physical_Order=1*
G04 Layer_Color=25308*
%FSLAX25Y25*%
%MOIN*%
G70*
G01*
G75*
%ADD10R,0.09449X0.02992*%
%ADD11R,0.05512X0.04724*%
%ADD12R,0.03543X0.05118*%
%ADD13R,0.07087X0.02362*%
%ADD14R,0.03937X0.09843*%
%ADD15R,0.05118X0.03543*%
%ADD16C,0.01969*%
%ADD17C,0.01000*%
%ADD18C,0.06000*%
%ADD19R,0.06000X0.06000*%
%ADD20O,0.08000X0.06000*%
%ADD21R,0.08000X0.06000*%
%ADD22C,0.05118*%
%ADD23R,0.05118X0.05118*%
%ADD24C,0.02362*%
G36*
X352107Y317184D02*
X159704D01*
Y509587D01*
X352107D01*
Y317184D01*
D02*
G37*
%LPC*%
G36*
X264429Y331311D02*
X261405D01*
Y328287D01*
X261835Y328344D01*
X262700Y328702D01*
X263444Y329273D01*
X264014Y330016D01*
X264373Y330882D01*
X264429Y331311D01*
D02*
G37*
G36*
X270406D02*
X267382D01*
X267438Y330882D01*
X267797Y330016D01*
X268367Y329273D01*
X269111Y328702D01*
X269976Y328344D01*
X270406Y328287D01*
Y331311D01*
D02*
G37*
G36*
X260405D02*
X257382D01*
X257438Y330882D01*
X257797Y330016D01*
X258367Y329273D01*
X259111Y328702D01*
X259976Y328344D01*
X260405Y328287D01*
Y331311D01*
D02*
G37*
G36*
X250406D02*
X247382D01*
X247438Y330882D01*
X247797Y330016D01*
X248367Y329273D01*
X249111Y328702D01*
X249976Y328344D01*
X250406Y328287D01*
Y331311D01*
D02*
G37*
G36*
X254429D02*
X251406D01*
Y328287D01*
X251835Y328344D01*
X252700Y328702D01*
X253444Y329273D01*
X254014Y330016D01*
X254373Y330882D01*
X254429Y331311D01*
D02*
G37*
G36*
X274429D02*
X271406D01*
Y328287D01*
X271835Y328344D01*
X272700Y328702D01*
X273444Y329273D01*
X274014Y330016D01*
X274373Y330882D01*
X274429Y331311D01*
D02*
G37*
G36*
X294429D02*
X291406D01*
Y328287D01*
X291835Y328344D01*
X292700Y328702D01*
X293444Y329273D01*
X294014Y330016D01*
X294373Y330882D01*
X294429Y331311D01*
D02*
G37*
G36*
X250406Y335335D02*
X249976Y335279D01*
X249111Y334920D01*
X248367Y334349D01*
X247797Y333606D01*
X247438Y332740D01*
X247382Y332311D01*
X250406D01*
Y335335D01*
D02*
G37*
G36*
X290406Y331311D02*
X287382D01*
X287438Y330882D01*
X287797Y330016D01*
X288367Y329273D01*
X289111Y328702D01*
X289976Y328344D01*
X290406Y328287D01*
Y331311D01*
D02*
G37*
G36*
X280405D02*
X277382D01*
X277438Y330882D01*
X277797Y330016D01*
X278367Y329273D01*
X279111Y328702D01*
X279976Y328344D01*
X280405Y328287D01*
Y331311D01*
D02*
G37*
G36*
X284429D02*
X281405D01*
Y328287D01*
X281835Y328344D01*
X282700Y328702D01*
X283444Y329273D01*
X284014Y330016D01*
X284373Y330882D01*
X284429Y331311D01*
D02*
G37*
G36*
X335146Y324959D02*
Y323335D01*
X336770D01*
X336700Y323686D01*
X336218Y324407D01*
X335497Y324889D01*
X335146Y324959D01*
D02*
G37*
G36*
X345957D02*
X345606Y324889D01*
X344884Y324407D01*
X344402Y323686D01*
X344332Y323335D01*
X345957D01*
Y324959D01*
D02*
G37*
G36*
X334146D02*
X333795Y324889D01*
X333073Y324407D01*
X332591Y323686D01*
X332521Y323335D01*
X334146D01*
Y324959D01*
D02*
G37*
G36*
X322335D02*
X321984Y324889D01*
X321262Y324407D01*
X320780Y323686D01*
X320710Y323335D01*
X322335D01*
Y324959D01*
D02*
G37*
G36*
X323335D02*
Y323335D01*
X324959D01*
X324889Y323686D01*
X324407Y324407D01*
X323686Y324889D01*
X323335Y324959D01*
D02*
G37*
G36*
X346957D02*
Y323335D01*
X348581D01*
X348511Y323686D01*
X348029Y324407D01*
X347308Y324889D01*
X346957Y324959D01*
D02*
G37*
G36*
X240905Y335401D02*
X239976Y335279D01*
X239111Y334920D01*
X238367Y334349D01*
X237797Y333606D01*
X237438Y332740D01*
X237316Y331811D01*
X237438Y330882D01*
X237797Y330016D01*
X238367Y329273D01*
X239111Y328702D01*
X239976Y328344D01*
X240905Y328221D01*
X241835Y328344D01*
X242700Y328702D01*
X243444Y329273D01*
X244014Y330016D01*
X244373Y330882D01*
X244495Y331811D01*
X244373Y332740D01*
X244014Y333606D01*
X243444Y334349D01*
X242700Y334920D01*
X241835Y335279D01*
X240905Y335401D01*
D02*
G37*
G36*
X300905D02*
X299976Y335279D01*
X299111Y334920D01*
X298367Y334349D01*
X297797Y333606D01*
X297438Y332740D01*
X297316Y331811D01*
X297438Y330882D01*
X297797Y330016D01*
X298367Y329273D01*
X299111Y328702D01*
X299976Y328344D01*
X300905Y328221D01*
X301835Y328344D01*
X302700Y328702D01*
X303444Y329273D01*
X304014Y330016D01*
X304373Y330882D01*
X304495Y331811D01*
X304373Y332740D01*
X304014Y333606D01*
X303444Y334349D01*
X302700Y334920D01*
X301835Y335279D01*
X300905Y335401D01*
D02*
G37*
G36*
X230906D02*
X229976Y335279D01*
X229111Y334920D01*
X228367Y334349D01*
X227797Y333606D01*
X227438Y332740D01*
X227316Y331811D01*
X227438Y330882D01*
X227797Y330016D01*
X228367Y329273D01*
X229111Y328702D01*
X229976Y328344D01*
X230906Y328221D01*
X231835Y328344D01*
X232700Y328702D01*
X233444Y329273D01*
X234014Y330016D01*
X234373Y330882D01*
X234495Y331811D01*
X234373Y332740D01*
X234014Y333606D01*
X233444Y334349D01*
X232700Y334920D01*
X231835Y335279D01*
X230906Y335401D01*
D02*
G37*
G36*
X210906D02*
X209976Y335279D01*
X209111Y334920D01*
X208367Y334349D01*
X207797Y333606D01*
X207438Y332740D01*
X207316Y331811D01*
X207438Y330882D01*
X207797Y330016D01*
X208367Y329273D01*
X209111Y328702D01*
X209976Y328344D01*
X210906Y328221D01*
X211835Y328344D01*
X212700Y328702D01*
X213444Y329273D01*
X214014Y330016D01*
X214373Y330882D01*
X214495Y331811D01*
X214373Y332740D01*
X214014Y333606D01*
X213444Y334349D01*
X212700Y334920D01*
X211835Y335279D01*
X210906Y335401D01*
D02*
G37*
G36*
X220905D02*
X219976Y335279D01*
X219111Y334920D01*
X218367Y334349D01*
X217797Y333606D01*
X217438Y332740D01*
X217316Y331811D01*
X217438Y330882D01*
X217797Y330016D01*
X218367Y329273D01*
X219111Y328702D01*
X219976Y328344D01*
X220905Y328221D01*
X221835Y328344D01*
X222700Y328702D01*
X223444Y329273D01*
X224014Y330016D01*
X224373Y330882D01*
X224495Y331811D01*
X224373Y332740D01*
X224014Y333606D01*
X223444Y334349D01*
X222700Y334920D01*
X221835Y335279D01*
X220905Y335401D01*
D02*
G37*
G36*
X251406Y335335D02*
Y332311D01*
X254429D01*
X254373Y332740D01*
X254014Y333606D01*
X253444Y334349D01*
X252700Y334920D01*
X251835Y335279D01*
X251406Y335335D01*
D02*
G37*
G36*
X270905Y345401D02*
X269976Y345279D01*
X269111Y344920D01*
X268367Y344349D01*
X267797Y343606D01*
X267438Y342740D01*
X267316Y341811D01*
X267438Y340882D01*
X267797Y340016D01*
X268367Y339273D01*
X269111Y338702D01*
X269976Y338344D01*
X270905Y338221D01*
X271835Y338344D01*
X272700Y338702D01*
X273444Y339273D01*
X274014Y340016D01*
X274373Y340882D01*
X274495Y341811D01*
X274373Y342740D01*
X274014Y343606D01*
X273444Y344349D01*
X272700Y344920D01*
X271835Y345279D01*
X270905Y345401D01*
D02*
G37*
G36*
X291158Y389090D02*
X283646D01*
Y384834D01*
X279475Y380663D01*
X279036Y380007D01*
X278882Y379232D01*
Y344745D01*
X278367Y344349D01*
X277797Y343606D01*
X277438Y342740D01*
X277316Y341811D01*
X277438Y340882D01*
X277797Y340016D01*
X278367Y339273D01*
X279111Y338702D01*
X279976Y338344D01*
X280906Y338221D01*
X281835Y338344D01*
X282700Y338702D01*
X283444Y339273D01*
X284014Y340016D01*
X284373Y340882D01*
X284495Y341811D01*
X284373Y342740D01*
X284014Y343606D01*
X283444Y344349D01*
X282929Y344745D01*
Y378394D01*
X286900Y382366D01*
X291158D01*
Y389090D01*
D02*
G37*
G36*
X250905Y345401D02*
X249976Y345279D01*
X249111Y344920D01*
X248367Y344349D01*
X247797Y343606D01*
X247438Y342740D01*
X247316Y341811D01*
X247438Y340882D01*
X247797Y340016D01*
X248367Y339273D01*
X249111Y338702D01*
X249976Y338344D01*
X250905Y338221D01*
X251835Y338344D01*
X252700Y338702D01*
X253444Y339273D01*
X254014Y340016D01*
X254373Y340882D01*
X254495Y341811D01*
X254373Y342740D01*
X254014Y343606D01*
X253444Y344349D01*
X252700Y344920D01*
X251835Y345279D01*
X250905Y345401D01*
D02*
G37*
G36*
X348581Y338083D02*
X346957D01*
Y336458D01*
X347308Y336528D01*
X348029Y337010D01*
X348511Y337732D01*
X348581Y338083D01*
D02*
G37*
G36*
X213598Y376000D02*
X207661D01*
Y364158D01*
X208882D01*
Y344745D01*
X208367Y344349D01*
X207797Y343606D01*
X207438Y342740D01*
X207316Y341811D01*
X207438Y340882D01*
X207797Y340016D01*
X208367Y339273D01*
X209111Y338702D01*
X209976Y338344D01*
X210906Y338221D01*
X211835Y338344D01*
X212700Y338702D01*
X213444Y339273D01*
X214014Y340016D01*
X214373Y340882D01*
X214495Y341811D01*
X214373Y342740D01*
X214014Y343606D01*
X213444Y344349D01*
X212929Y344745D01*
Y364158D01*
X213598D01*
Y376000D01*
D02*
G37*
G36*
X290905Y345401D02*
X289976Y345279D01*
X289111Y344920D01*
X288367Y344349D01*
X287797Y343606D01*
X287438Y342740D01*
X287316Y341811D01*
X287438Y340882D01*
X287797Y340016D01*
X288367Y339273D01*
X289111Y338702D01*
X289976Y338344D01*
X290905Y338221D01*
X291835Y338344D01*
X292700Y338702D01*
X293444Y339273D01*
X294014Y340016D01*
X294373Y340882D01*
X294495Y341811D01*
X294373Y342740D01*
X294014Y343606D01*
X293444Y344349D01*
X292700Y344920D01*
X291835Y345279D01*
X290905Y345401D01*
D02*
G37*
G36*
X346957Y340707D02*
Y339083D01*
X348581D01*
X348511Y339434D01*
X348029Y340155D01*
X347308Y340637D01*
X346957Y340707D01*
D02*
G37*
G36*
X279346Y389090D02*
X271835D01*
Y384834D01*
X247292Y360291D01*
X237362D01*
X236588Y360137D01*
X235932Y359698D01*
X221549Y345316D01*
X220905Y345401D01*
X219976Y345279D01*
X219111Y344920D01*
X218367Y344349D01*
X217797Y343606D01*
X217438Y342740D01*
X217316Y341811D01*
X217438Y340882D01*
X217797Y340016D01*
X218367Y339273D01*
X219111Y338702D01*
X219976Y338344D01*
X220905Y338221D01*
X221835Y338344D01*
X222700Y338702D01*
X223444Y339273D01*
X224014Y340016D01*
X224373Y340882D01*
X224495Y341811D01*
X224411Y342455D01*
X238200Y356244D01*
X241818D01*
X241974Y355816D01*
X241978Y355745D01*
X231549Y345316D01*
X230906Y345401D01*
X229976Y345279D01*
X229111Y344920D01*
X228367Y344349D01*
X227797Y343606D01*
X227438Y342740D01*
X227316Y341811D01*
X227438Y340882D01*
X227797Y340016D01*
X228367Y339273D01*
X229111Y338702D01*
X229976Y338344D01*
X230906Y338221D01*
X231835Y338344D01*
X232700Y338702D01*
X233444Y339273D01*
X234014Y340016D01*
X234373Y340882D01*
X234495Y341811D01*
X234411Y342455D01*
X244263Y352308D01*
X247888D01*
X248079Y351846D01*
X241549Y345316D01*
X240905Y345401D01*
X239976Y345279D01*
X239111Y344920D01*
X238367Y344349D01*
X237797Y343606D01*
X237438Y342740D01*
X237316Y341811D01*
X237438Y340882D01*
X237797Y340016D01*
X238367Y339273D01*
X239111Y338702D01*
X239976Y338344D01*
X240905Y338221D01*
X241835Y338344D01*
X242700Y338702D01*
X243444Y339273D01*
X244014Y340016D01*
X244373Y340882D01*
X244495Y341811D01*
X244410Y342455D01*
X264499Y362544D01*
X274218D01*
X274370Y362044D01*
X274018Y361809D01*
X273536Y361087D01*
X273367Y360236D01*
X273536Y359385D01*
X273567Y359338D01*
Y357334D01*
X261549Y345316D01*
X260906Y345401D01*
X259976Y345279D01*
X259111Y344920D01*
X258367Y344349D01*
X257797Y343606D01*
X257438Y342740D01*
X257316Y341811D01*
X257438Y340882D01*
X257797Y340016D01*
X258367Y339273D01*
X259111Y338702D01*
X259976Y338344D01*
X260906Y338221D01*
X261835Y338344D01*
X262700Y338702D01*
X263444Y339273D01*
X264014Y340016D01*
X264373Y340882D01*
X264495Y341811D01*
X264410Y342455D01*
X277021Y355065D01*
X277460Y355722D01*
X277614Y356496D01*
Y359338D01*
X277645Y359385D01*
X277814Y360236D01*
X277645Y361087D01*
X277163Y361809D01*
X276726Y362101D01*
Y362702D01*
X277163Y362994D01*
X277645Y363716D01*
X277814Y364567D01*
X277645Y365418D01*
X277163Y366139D01*
X276726Y366432D01*
Y367033D01*
X277163Y367325D01*
X277645Y368047D01*
X277814Y368898D01*
X277645Y369749D01*
X277163Y370470D01*
X276442Y370952D01*
X275590Y371121D01*
X274740Y370952D01*
X274692Y370921D01*
X264351D01*
X264144Y371421D01*
X275090Y382366D01*
X279346D01*
Y389090D01*
D02*
G37*
G36*
X345957Y340707D02*
X345606Y340637D01*
X344884Y340155D01*
X344402Y339434D01*
X344332Y339083D01*
X345957D01*
Y340707D01*
D02*
G37*
G36*
X164854D02*
X164503Y340637D01*
X163782Y340155D01*
X163300Y339434D01*
X163230Y339083D01*
X164854D01*
Y340707D01*
D02*
G37*
G36*
X165854D02*
Y339083D01*
X167479D01*
X167409Y339434D01*
X166927Y340155D01*
X166205Y340637D01*
X165854Y340707D01*
D02*
G37*
G36*
X271406Y335335D02*
Y332311D01*
X274429D01*
X274373Y332740D01*
X274014Y333606D01*
X273444Y334349D01*
X272700Y334920D01*
X271835Y335279D01*
X271406Y335335D01*
D02*
G37*
G36*
X280405D02*
X279976Y335279D01*
X279111Y334920D01*
X278367Y334349D01*
X277797Y333606D01*
X277438Y332740D01*
X277382Y332311D01*
X280405D01*
Y335335D01*
D02*
G37*
G36*
X270406D02*
X269976Y335279D01*
X269111Y334920D01*
X268367Y334349D01*
X267797Y333606D01*
X267438Y332740D01*
X267382Y332311D01*
X270406D01*
Y335335D01*
D02*
G37*
G36*
X260405D02*
X259976Y335279D01*
X259111Y334920D01*
X258367Y334349D01*
X257797Y333606D01*
X257438Y332740D01*
X257382Y332311D01*
X260405D01*
Y335335D01*
D02*
G37*
G36*
X261405D02*
Y332311D01*
X264429D01*
X264373Y332740D01*
X264014Y333606D01*
X263444Y334349D01*
X262700Y334920D01*
X261835Y335279D01*
X261405Y335335D01*
D02*
G37*
G36*
X281405D02*
Y332311D01*
X284429D01*
X284373Y332740D01*
X284014Y333606D01*
X283444Y334349D01*
X282700Y334920D01*
X281835Y335279D01*
X281405Y335335D01*
D02*
G37*
G36*
X167479Y338083D02*
X165854D01*
Y336458D01*
X166205Y336528D01*
X166927Y337010D01*
X167409Y337732D01*
X167479Y338083D01*
D02*
G37*
G36*
X345957D02*
X344332D01*
X344402Y337732D01*
X344884Y337010D01*
X345606Y336528D01*
X345957Y336458D01*
Y338083D01*
D02*
G37*
G36*
X164854D02*
X163230D01*
X163300Y337732D01*
X163782Y337010D01*
X164503Y336528D01*
X164854Y336458D01*
Y338083D01*
D02*
G37*
G36*
X290406Y335335D02*
X289976Y335279D01*
X289111Y334920D01*
X288367Y334349D01*
X287797Y333606D01*
X287438Y332740D01*
X287382Y332311D01*
X290406D01*
Y335335D01*
D02*
G37*
G36*
X291406D02*
Y332311D01*
X294429D01*
X294373Y332740D01*
X294014Y333606D01*
X293444Y334349D01*
X292700Y334920D01*
X291835Y335279D01*
X291406Y335335D01*
D02*
G37*
G36*
X307587Y324959D02*
Y323335D01*
X309211D01*
X309141Y323686D01*
X308659Y324407D01*
X307938Y324889D01*
X307587Y324959D01*
D02*
G37*
G36*
X275091Y322335D02*
X273466D01*
X273536Y321984D01*
X274018Y321262D01*
X274740Y320780D01*
X275091Y320710D01*
Y322335D01*
D02*
G37*
G36*
X277715D02*
X276091D01*
Y320710D01*
X276442Y320780D01*
X277163Y321262D01*
X277645Y321984D01*
X277715Y322335D01*
D02*
G37*
G36*
X261967D02*
X260343D01*
Y320710D01*
X260694Y320780D01*
X261415Y321262D01*
X261897Y321984D01*
X261967Y322335D01*
D02*
G37*
G36*
X246219D02*
X244594D01*
Y320710D01*
X244945Y320780D01*
X245667Y321262D01*
X246149Y321984D01*
X246219Y322335D01*
D02*
G37*
G36*
X259343D02*
X257718D01*
X257788Y321984D01*
X258270Y321262D01*
X258991Y320780D01*
X259343Y320710D01*
Y322335D01*
D02*
G37*
G36*
X290839D02*
X289214D01*
X289284Y321984D01*
X289766Y321262D01*
X290488Y320780D01*
X290839Y320710D01*
Y322335D01*
D02*
G37*
G36*
X322335D02*
X320710D01*
X320780Y321984D01*
X321262Y321262D01*
X321984Y320780D01*
X322335Y320710D01*
Y322335D01*
D02*
G37*
G36*
X324959D02*
X323335D01*
Y320710D01*
X323686Y320780D01*
X324407Y321262D01*
X324889Y321984D01*
X324959Y322335D01*
D02*
G37*
G36*
X309211D02*
X307587D01*
Y320710D01*
X307938Y320780D01*
X308659Y321262D01*
X309141Y321984D01*
X309211Y322335D01*
D02*
G37*
G36*
X293463D02*
X291839D01*
Y320710D01*
X292190Y320780D01*
X292911Y321262D01*
X293393Y321984D01*
X293463Y322335D01*
D02*
G37*
G36*
X306587D02*
X304962D01*
X305032Y321984D01*
X305514Y321262D01*
X306236Y320780D01*
X306587Y320710D01*
Y322335D01*
D02*
G37*
G36*
X183227D02*
X181602D01*
Y320710D01*
X181953Y320780D01*
X182675Y321262D01*
X183157Y321984D01*
X183227Y322335D01*
D02*
G37*
G36*
X196350D02*
X194726D01*
X194796Y321984D01*
X195278Y321262D01*
X195999Y320780D01*
X196350Y320710D01*
Y322335D01*
D02*
G37*
G36*
X180602D02*
X178978D01*
X179048Y321984D01*
X179530Y321262D01*
X180251Y320780D01*
X180602Y320710D01*
Y322335D01*
D02*
G37*
G36*
X164854D02*
X163230D01*
X163300Y321984D01*
X163782Y321262D01*
X164503Y320780D01*
X164854Y320710D01*
Y322335D01*
D02*
G37*
G36*
X167479D02*
X165854D01*
Y320710D01*
X166205Y320780D01*
X166927Y321262D01*
X167409Y321984D01*
X167479Y322335D01*
D02*
G37*
G36*
X198975D02*
X197350D01*
Y320710D01*
X197701Y320780D01*
X198423Y321262D01*
X198905Y321984D01*
X198975Y322335D01*
D02*
G37*
G36*
X230471D02*
X228846D01*
Y320710D01*
X229197Y320780D01*
X229919Y321262D01*
X230401Y321984D01*
X230471Y322335D01*
D02*
G37*
G36*
X243594D02*
X241970D01*
X242040Y321984D01*
X242522Y321262D01*
X243243Y320780D01*
X243594Y320710D01*
Y322335D01*
D02*
G37*
G36*
X227846D02*
X226222D01*
X226292Y321984D01*
X226774Y321262D01*
X227495Y320780D01*
X227846Y320710D01*
Y322335D01*
D02*
G37*
G36*
X212098D02*
X210474D01*
X210544Y321984D01*
X211026Y321262D01*
X211747Y320780D01*
X212098Y320710D01*
Y322335D01*
D02*
G37*
G36*
X214723D02*
X213098D01*
Y320710D01*
X213449Y320780D01*
X214171Y321262D01*
X214653Y321984D01*
X214723Y322335D01*
D02*
G37*
G36*
X334146D02*
X332521D01*
X332591Y321984D01*
X333073Y321262D01*
X333795Y320780D01*
X334146Y320710D01*
Y322335D01*
D02*
G37*
G36*
X244594Y324959D02*
Y323335D01*
X246219D01*
X246149Y323686D01*
X245667Y324407D01*
X244945Y324889D01*
X244594Y324959D01*
D02*
G37*
G36*
X259343D02*
X258991Y324889D01*
X258270Y324407D01*
X257788Y323686D01*
X257718Y323335D01*
X259343D01*
Y324959D01*
D02*
G37*
G36*
X243594D02*
X243243Y324889D01*
X242522Y324407D01*
X242040Y323686D01*
X241970Y323335D01*
X243594D01*
Y324959D01*
D02*
G37*
G36*
X227846D02*
X227495Y324889D01*
X226774Y324407D01*
X226292Y323686D01*
X226222Y323335D01*
X227846D01*
Y324959D01*
D02*
G37*
G36*
X228846D02*
Y323335D01*
X230471D01*
X230401Y323686D01*
X229919Y324407D01*
X229197Y324889D01*
X228846Y324959D01*
D02*
G37*
G36*
X260343D02*
Y323335D01*
X261967D01*
X261897Y323686D01*
X261415Y324407D01*
X260694Y324889D01*
X260343Y324959D01*
D02*
G37*
G36*
X291839D02*
Y323335D01*
X293463D01*
X293393Y323686D01*
X292911Y324407D01*
X292190Y324889D01*
X291839Y324959D01*
D02*
G37*
G36*
X306587D02*
X306236Y324889D01*
X305514Y324407D01*
X305032Y323686D01*
X304962Y323335D01*
X306587D01*
Y324959D01*
D02*
G37*
G36*
X290839D02*
X290488Y324889D01*
X289766Y324407D01*
X289284Y323686D01*
X289214Y323335D01*
X290839D01*
Y324959D01*
D02*
G37*
G36*
X275091D02*
X274740Y324889D01*
X274018Y324407D01*
X273536Y323686D01*
X273466Y323335D01*
X275091D01*
Y324959D01*
D02*
G37*
G36*
X276091D02*
Y323335D01*
X277715D01*
X277645Y323686D01*
X277163Y324407D01*
X276442Y324889D01*
X276091Y324959D01*
D02*
G37*
G36*
X164854D02*
X164503Y324889D01*
X163782Y324407D01*
X163300Y323686D01*
X163230Y323335D01*
X164854D01*
Y324959D01*
D02*
G37*
G36*
X165854D02*
Y323335D01*
X167479D01*
X167409Y323686D01*
X166927Y324407D01*
X166205Y324889D01*
X165854Y324959D01*
D02*
G37*
G36*
X348581Y322335D02*
X346957D01*
Y320710D01*
X347308Y320780D01*
X348029Y321262D01*
X348511Y321984D01*
X348581Y322335D01*
D02*
G37*
G36*
X336770D02*
X335146D01*
Y320710D01*
X335497Y320780D01*
X336218Y321262D01*
X336700Y321984D01*
X336770Y322335D01*
D02*
G37*
G36*
X345957D02*
X344332D01*
X344402Y321984D01*
X344884Y321262D01*
X345606Y320780D01*
X345957Y320710D01*
Y322335D01*
D02*
G37*
G36*
X180602Y324959D02*
X180251Y324889D01*
X179530Y324407D01*
X179048Y323686D01*
X178978Y323335D01*
X180602D01*
Y324959D01*
D02*
G37*
G36*
X212098D02*
X211747Y324889D01*
X211026Y324407D01*
X210544Y323686D01*
X210474Y323335D01*
X212098D01*
Y324959D01*
D02*
G37*
G36*
X213098D02*
Y323335D01*
X214723D01*
X214653Y323686D01*
X214171Y324407D01*
X213449Y324889D01*
X213098Y324959D01*
D02*
G37*
G36*
X197350D02*
Y323335D01*
X198975D01*
X198905Y323686D01*
X198423Y324407D01*
X197701Y324889D01*
X197350Y324959D01*
D02*
G37*
G36*
X181602D02*
Y323335D01*
X183227D01*
X183157Y323686D01*
X182675Y324407D01*
X181953Y324889D01*
X181602Y324959D01*
D02*
G37*
G36*
X196350D02*
X195999Y324889D01*
X195278Y324407D01*
X194796Y323686D01*
X194726Y323335D01*
X196350D01*
Y324959D01*
D02*
G37*
G36*
X165905Y445846D02*
X164861Y445708D01*
X163888Y445305D01*
X163053Y444664D01*
X162411Y443828D01*
X162009Y442855D01*
X161871Y441811D01*
X162009Y440767D01*
X162411Y439794D01*
X163053Y438958D01*
X163888Y438317D01*
X164861Y437914D01*
X165905Y437777D01*
X166950Y437914D01*
X167923Y438317D01*
X168758Y438958D01*
X169399Y439794D01*
X169803Y440767D01*
X169940Y441811D01*
X169803Y442855D01*
X169399Y443828D01*
X168758Y444664D01*
X167923Y445305D01*
X166950Y445708D01*
X165905Y445846D01*
D02*
G37*
G36*
X240905D02*
X239861Y445708D01*
X238888Y445305D01*
X238053Y444664D01*
X237411Y443828D01*
X237009Y442855D01*
X236871Y441811D01*
X237009Y440767D01*
X237411Y439794D01*
X238053Y438958D01*
X238888Y438317D01*
X239861Y437914D01*
X240905Y437777D01*
X241950Y437914D01*
X242923Y438317D01*
X243758Y438958D01*
X244399Y439794D01*
X244803Y440767D01*
X244940Y441811D01*
X244803Y442855D01*
X244399Y443828D01*
X243758Y444664D01*
X242923Y445305D01*
X241950Y445708D01*
X240905Y445846D01*
D02*
G37*
G36*
X345905Y435846D02*
X344861Y435708D01*
X343888Y435305D01*
X343053Y434664D01*
X342411Y433828D01*
X342008Y432855D01*
X341871Y431811D01*
X342008Y430767D01*
X342411Y429794D01*
X343053Y428958D01*
X343888Y428317D01*
X344861Y427914D01*
X345905Y427777D01*
X346950Y427914D01*
X347923Y428317D01*
X348758Y428958D01*
X349399Y429794D01*
X349803Y430767D01*
X349940Y431811D01*
X349803Y432855D01*
X349399Y433828D01*
X348758Y434664D01*
X347923Y435305D01*
X346950Y435708D01*
X345905Y435846D01*
D02*
G37*
G36*
X165905D02*
X164861Y435708D01*
X163888Y435305D01*
X163053Y434664D01*
X162411Y433828D01*
X162009Y432855D01*
X161871Y431811D01*
X162009Y430767D01*
X162411Y429794D01*
X163053Y428958D01*
X163888Y428317D01*
X164861Y427914D01*
X165905Y427777D01*
X166950Y427914D01*
X167923Y428317D01*
X168758Y428958D01*
X169399Y429794D01*
X169803Y430767D01*
X169940Y431811D01*
X169803Y432855D01*
X169399Y433828D01*
X168758Y434664D01*
X167923Y435305D01*
X166950Y435708D01*
X165905Y435846D01*
D02*
G37*
G36*
X240905D02*
X239861Y435708D01*
X238888Y435305D01*
X238053Y434664D01*
X237411Y433828D01*
X237009Y432855D01*
X236871Y431811D01*
X237009Y430767D01*
X237411Y429794D01*
X238053Y428958D01*
X238888Y428317D01*
X239861Y427914D01*
X240905Y427777D01*
X241950Y427914D01*
X242923Y428317D01*
X243758Y428958D01*
X244399Y429794D01*
X244803Y430767D01*
X244940Y431811D01*
X244803Y432855D01*
X244399Y433828D01*
X243758Y434664D01*
X242923Y435305D01*
X241950Y435708D01*
X240905Y435846D01*
D02*
G37*
G36*
X345905Y445846D02*
X344861Y445708D01*
X343888Y445305D01*
X343053Y444664D01*
X342411Y443828D01*
X342008Y442855D01*
X341871Y441811D01*
X342008Y440767D01*
X342411Y439794D01*
X343053Y438958D01*
X343888Y438317D01*
X344861Y437914D01*
X345905Y437777D01*
X346950Y437914D01*
X347923Y438317D01*
X348758Y438958D01*
X349399Y439794D01*
X349803Y440767D01*
X349940Y441811D01*
X349803Y442855D01*
X349399Y443828D01*
X348758Y444664D01*
X347923Y445305D01*
X346950Y445708D01*
X345905Y445846D01*
D02*
G37*
G36*
Y455846D02*
X344861Y455708D01*
X343888Y455305D01*
X343053Y454664D01*
X342411Y453828D01*
X342008Y452855D01*
X341871Y451811D01*
X342008Y450767D01*
X342411Y449794D01*
X343053Y448958D01*
X343888Y448317D01*
X344861Y447914D01*
X345905Y447777D01*
X346950Y447914D01*
X347923Y448317D01*
X348758Y448958D01*
X349399Y449794D01*
X349803Y450767D01*
X349940Y451811D01*
X349803Y452855D01*
X349399Y453828D01*
X348758Y454664D01*
X347923Y455305D01*
X346950Y455708D01*
X345905Y455846D01*
D02*
G37*
G36*
X165905Y465846D02*
X164861Y465708D01*
X163888Y465305D01*
X163053Y464664D01*
X162411Y463828D01*
X162009Y462855D01*
X161871Y461811D01*
X162009Y460767D01*
X162411Y459794D01*
X163053Y458958D01*
X163888Y458317D01*
X164861Y457914D01*
X165905Y457777D01*
X166950Y457914D01*
X167923Y458317D01*
X168758Y458958D01*
X169399Y459794D01*
X169803Y460767D01*
X169940Y461811D01*
X169803Y462855D01*
X169399Y463828D01*
X168758Y464664D01*
X167923Y465305D01*
X166950Y465708D01*
X165905Y465846D01*
D02*
G37*
G36*
X270905Y455846D02*
X269861Y455708D01*
X268888Y455305D01*
X268053Y454664D01*
X267411Y453828D01*
X267008Y452855D01*
X266871Y451811D01*
X267008Y450767D01*
X267411Y449794D01*
X268053Y448958D01*
X268888Y448317D01*
X269861Y447914D01*
X270905Y447777D01*
X271950Y447914D01*
X272923Y448317D01*
X273758Y448958D01*
X274399Y449794D01*
X274803Y450767D01*
X274940Y451811D01*
X274803Y452855D01*
X274399Y453828D01*
X273758Y454664D01*
X272923Y455305D01*
X271950Y455708D01*
X270905Y455846D01*
D02*
G37*
G36*
X165905D02*
X164861Y455708D01*
X163888Y455305D01*
X163053Y454664D01*
X162411Y453828D01*
X162009Y452855D01*
X161871Y451811D01*
X162009Y450767D01*
X162411Y449794D01*
X163053Y448958D01*
X163888Y448317D01*
X164861Y447914D01*
X165905Y447777D01*
X166950Y447914D01*
X167923Y448317D01*
X168758Y448958D01*
X169399Y449794D01*
X169803Y450767D01*
X169940Y451811D01*
X169803Y452855D01*
X169399Y453828D01*
X168758Y454664D01*
X167923Y455305D01*
X166950Y455708D01*
X165905Y455846D01*
D02*
G37*
G36*
X240905D02*
X239861Y455708D01*
X238888Y455305D01*
X238053Y454664D01*
X237411Y453828D01*
X237009Y452855D01*
X236871Y451811D01*
X237009Y450767D01*
X237411Y449794D01*
X238053Y448958D01*
X238888Y448317D01*
X239861Y447914D01*
X240905Y447777D01*
X241950Y447914D01*
X242923Y448317D01*
X243758Y448958D01*
X244399Y449794D01*
X244803Y450767D01*
X244940Y451811D01*
X244803Y452855D01*
X244399Y453828D01*
X243758Y454664D01*
X242923Y455305D01*
X241950Y455708D01*
X240905Y455846D01*
D02*
G37*
G36*
X346957Y419447D02*
Y417823D01*
X348581D01*
X348511Y418174D01*
X348029Y418895D01*
X347308Y419377D01*
X346957Y419447D01*
D02*
G37*
G36*
X164854Y416823D02*
X163230D01*
X163300Y416472D01*
X163782Y415750D01*
X164503Y415268D01*
X164854Y415198D01*
Y416823D01*
D02*
G37*
G36*
X167479D02*
X165854D01*
Y415198D01*
X166205Y415268D01*
X166927Y415750D01*
X167409Y416472D01*
X167479Y416823D01*
D02*
G37*
G36*
X165854Y403699D02*
Y402075D01*
X167479D01*
X167409Y402426D01*
X166927Y403147D01*
X166205Y403629D01*
X165854Y403699D01*
D02*
G37*
G36*
X167479Y401075D02*
X165854D01*
Y399450D01*
X166205Y399520D01*
X166927Y400002D01*
X167409Y400724D01*
X167479Y401075D01*
D02*
G37*
G36*
X164854Y403699D02*
X164503Y403629D01*
X163782Y403147D01*
X163300Y402426D01*
X163230Y402075D01*
X164854D01*
Y403699D01*
D02*
G37*
G36*
X345957Y416823D02*
X344332D01*
X344402Y416472D01*
X344884Y415750D01*
X345606Y415268D01*
X345957Y415198D01*
Y416823D01*
D02*
G37*
G36*
X165854Y419447D02*
Y417823D01*
X167479D01*
X167409Y418174D01*
X166927Y418895D01*
X166205Y419377D01*
X165854Y419447D01*
D02*
G37*
G36*
X345957D02*
X345606Y419377D01*
X344884Y418895D01*
X344402Y418174D01*
X344332Y417823D01*
X345957D01*
Y419447D01*
D02*
G37*
G36*
X164854D02*
X164503Y419377D01*
X163782Y418895D01*
X163300Y418174D01*
X163230Y417823D01*
X164854D01*
Y419447D01*
D02*
G37*
G36*
X348581Y416823D02*
X346957D01*
Y415198D01*
X347308Y415268D01*
X348029Y415750D01*
X348511Y416472D01*
X348581Y416823D01*
D02*
G37*
G36*
X165905Y495846D02*
X164861Y495708D01*
X163888Y495305D01*
X163053Y494664D01*
X162411Y493828D01*
X162009Y492855D01*
X161871Y491811D01*
X162009Y490767D01*
X162411Y489794D01*
X163053Y488958D01*
X163888Y488317D01*
X164861Y487914D01*
X165905Y487777D01*
X166950Y487914D01*
X167438Y488116D01*
X204179Y451374D01*
Y418335D01*
X203664Y418267D01*
X202691Y417864D01*
X201856Y417223D01*
X201215Y416387D01*
X201012Y415899D01*
X184814D01*
X184612Y416387D01*
X183971Y417223D01*
X183135Y417864D01*
X182162Y418267D01*
X181118Y418405D01*
X179118D01*
X178074Y418267D01*
X177101Y417864D01*
X176265Y417223D01*
X175624Y416387D01*
X175221Y415414D01*
X175083Y414370D01*
X175221Y413326D01*
X175624Y412353D01*
X176265Y411517D01*
X177101Y410876D01*
X178074Y410473D01*
X179118Y410335D01*
X181118D01*
X182162Y410473D01*
X183135Y410876D01*
X183971Y411517D01*
X184612Y412353D01*
X184814Y412841D01*
X201012D01*
X201215Y412353D01*
X201856Y411517D01*
X202691Y410876D01*
X203664Y410473D01*
X204709Y410335D01*
X206709D01*
X207753Y410473D01*
X208726Y410876D01*
X209561Y411517D01*
X210203Y412353D01*
X210606Y413326D01*
X210743Y414370D01*
X210606Y415414D01*
X210203Y416387D01*
X209561Y417223D01*
X208726Y417864D01*
X207753Y418267D01*
X207238Y418335D01*
Y452008D01*
X207122Y452593D01*
X206790Y453089D01*
X169600Y490279D01*
X169803Y490767D01*
X169940Y491811D01*
X169803Y492855D01*
X169399Y493828D01*
X168758Y494664D01*
X167923Y495305D01*
X166950Y495708D01*
X165905Y495846D01*
D02*
G37*
G36*
X345905Y485846D02*
X344861Y485708D01*
X343888Y485305D01*
X343053Y484664D01*
X342411Y483828D01*
X342008Y482855D01*
X341871Y481811D01*
X342008Y480767D01*
X342411Y479794D01*
X343053Y478958D01*
X343888Y478317D01*
X344861Y477914D01*
X345905Y477777D01*
X346950Y477914D01*
X347923Y478317D01*
X348758Y478958D01*
X349399Y479794D01*
X349803Y480767D01*
X349940Y481811D01*
X349803Y482855D01*
X349399Y483828D01*
X348758Y484664D01*
X347923Y485305D01*
X346950Y485708D01*
X345905Y485846D01*
D02*
G37*
G36*
X240905Y495846D02*
X239861Y495708D01*
X238888Y495305D01*
X238053Y494664D01*
X237411Y493828D01*
X237009Y492855D01*
X236871Y491811D01*
X237009Y490767D01*
X237411Y489794D01*
X238053Y488958D01*
X238888Y488317D01*
X239861Y487914D01*
X240905Y487777D01*
X241950Y487914D01*
X242923Y488317D01*
X243758Y488958D01*
X244399Y489794D01*
X244803Y490767D01*
X244940Y491811D01*
X244803Y492855D01*
X244399Y493828D01*
X243758Y494664D01*
X242923Y495305D01*
X241950Y495708D01*
X240905Y495846D01*
D02*
G37*
G36*
Y485846D02*
X239861Y485708D01*
X238888Y485305D01*
X238053Y484664D01*
X237411Y483828D01*
X237009Y482855D01*
X236871Y481811D01*
X237009Y480767D01*
X237411Y479794D01*
X238053Y478958D01*
X238888Y478317D01*
X239861Y477914D01*
X240905Y477777D01*
X241950Y477914D01*
X242923Y478317D01*
X243758Y478958D01*
X244399Y479794D01*
X244803Y480767D01*
X244940Y481811D01*
X244803Y482855D01*
X244399Y483828D01*
X243758Y484664D01*
X242923Y485305D01*
X241950Y485708D01*
X240905Y485846D01*
D02*
G37*
G36*
X346406Y475780D02*
Y472311D01*
X349874D01*
X349803Y472855D01*
X349399Y473828D01*
X348758Y474664D01*
X347923Y475305D01*
X346950Y475708D01*
X346406Y475780D01*
D02*
G37*
G36*
X165905Y485846D02*
X164861Y485708D01*
X163888Y485305D01*
X163053Y484664D01*
X162411Y483828D01*
X162009Y482855D01*
X161871Y481811D01*
X162009Y480767D01*
X162411Y479794D01*
X163053Y478958D01*
X163888Y478317D01*
X164861Y477914D01*
X165905Y477777D01*
X166950Y477914D01*
X167923Y478317D01*
X168758Y478958D01*
X169399Y479794D01*
X169803Y480767D01*
X169940Y481811D01*
X169803Y482855D01*
X169399Y483828D01*
X168758Y484664D01*
X167923Y485305D01*
X166950Y485708D01*
X165905Y485846D01*
D02*
G37*
G36*
X270905Y495846D02*
X269861Y495708D01*
X268888Y495305D01*
X268053Y494664D01*
X267411Y493828D01*
X267008Y492855D01*
X266871Y491811D01*
X267008Y490767D01*
X267411Y489794D01*
X268053Y488958D01*
X268888Y488317D01*
X269861Y487914D01*
X270905Y487777D01*
X271950Y487914D01*
X272923Y488317D01*
X273758Y488958D01*
X274399Y489794D01*
X274803Y490767D01*
X274940Y491811D01*
X274803Y492855D01*
X274399Y493828D01*
X273758Y494664D01*
X272923Y495305D01*
X271950Y495708D01*
X270905Y495846D01*
D02*
G37*
G36*
X244905Y505811D02*
X236906D01*
Y497811D01*
X244905D01*
Y505811D01*
D02*
G37*
G36*
X349905D02*
X341905D01*
Y497811D01*
X349905D01*
Y505811D01*
D02*
G37*
G36*
X169905D02*
X161906D01*
Y497811D01*
X169905D01*
Y505811D01*
D02*
G37*
G36*
X345905Y495846D02*
X344861Y495708D01*
X343888Y495305D01*
X343053Y494664D01*
X342411Y493828D01*
X342008Y492855D01*
X341871Y491811D01*
X342008Y490767D01*
X342411Y489794D01*
X343053Y488958D01*
X343888Y488317D01*
X344861Y487914D01*
X345905Y487777D01*
X346950Y487914D01*
X347923Y488317D01*
X348758Y488958D01*
X349399Y489794D01*
X349803Y490767D01*
X349940Y491811D01*
X349803Y492855D01*
X349399Y493828D01*
X348758Y494664D01*
X347923Y495305D01*
X346950Y495708D01*
X345905Y495846D01*
D02*
G37*
G36*
X270905Y505846D02*
X269861Y505708D01*
X268888Y505305D01*
X268053Y504664D01*
X267411Y503828D01*
X267008Y502855D01*
X266871Y501811D01*
X267008Y500767D01*
X267411Y499794D01*
X268053Y498958D01*
X268888Y498317D01*
X269861Y497914D01*
X270905Y497777D01*
X271950Y497914D01*
X272923Y498317D01*
X273758Y498958D01*
X274399Y499794D01*
X274803Y500767D01*
X274940Y501811D01*
X274803Y502855D01*
X274399Y503828D01*
X273758Y504664D01*
X272923Y505305D01*
X271950Y505708D01*
X270905Y505846D01*
D02*
G37*
G36*
X345406Y475780D02*
X344861Y475708D01*
X343888Y475305D01*
X343053Y474664D01*
X342411Y473828D01*
X342008Y472855D01*
X341937Y472311D01*
X345406D01*
Y475780D01*
D02*
G37*
G36*
X165905Y475846D02*
X164861Y475708D01*
X163888Y475305D01*
X163053Y474664D01*
X162411Y473828D01*
X162009Y472855D01*
X161871Y471811D01*
X162009Y470767D01*
X162411Y469794D01*
X163053Y468958D01*
X163888Y468317D01*
X164861Y467914D01*
X165905Y467777D01*
X166950Y467914D01*
X167923Y468317D01*
X168758Y468958D01*
X169399Y469794D01*
X169803Y470767D01*
X169940Y471811D01*
X169803Y472855D01*
X169399Y473828D01*
X168758Y474664D01*
X167923Y475305D01*
X166950Y475708D01*
X165905Y475846D01*
D02*
G37*
G36*
X240905D02*
X239861Y475708D01*
X238888Y475305D01*
X238053Y474664D01*
X237411Y473828D01*
X237009Y472855D01*
X236871Y471811D01*
X237009Y470767D01*
X237411Y469794D01*
X238053Y468958D01*
X238888Y468317D01*
X239861Y467914D01*
X240905Y467777D01*
X241950Y467914D01*
X242923Y468317D01*
X243758Y468958D01*
X244399Y469794D01*
X244803Y470767D01*
X244940Y471811D01*
X244803Y472855D01*
X244399Y473828D01*
X243758Y474664D01*
X242923Y475305D01*
X241950Y475708D01*
X240905Y475846D01*
D02*
G37*
G36*
X345905Y465846D02*
X344861Y465708D01*
X343888Y465305D01*
X343053Y464664D01*
X342411Y463828D01*
X342008Y462855D01*
X341871Y461811D01*
X342008Y460767D01*
X342411Y459794D01*
X343053Y458958D01*
X343888Y458317D01*
X344861Y457914D01*
X345905Y457777D01*
X346950Y457914D01*
X347923Y458317D01*
X348758Y458958D01*
X349399Y459794D01*
X349803Y460767D01*
X349940Y461811D01*
X349803Y462855D01*
X349399Y463828D01*
X348758Y464664D01*
X347923Y465305D01*
X346950Y465708D01*
X345905Y465846D01*
D02*
G37*
G36*
X240905D02*
X239861Y465708D01*
X238888Y465305D01*
X238053Y464664D01*
X237411Y463828D01*
X237009Y462855D01*
X236871Y461811D01*
X237009Y460767D01*
X237411Y459794D01*
X238053Y458958D01*
X238888Y458317D01*
X239861Y457914D01*
X240905Y457777D01*
X241950Y457914D01*
X242923Y458317D01*
X243758Y458958D01*
X244399Y459794D01*
X244803Y460767D01*
X244940Y461811D01*
X244803Y462855D01*
X244399Y463828D01*
X243758Y464664D01*
X242923Y465305D01*
X241950Y465708D01*
X240905Y465846D01*
D02*
G37*
G36*
X270905D02*
X269861Y465708D01*
X268888Y465305D01*
X268053Y464664D01*
X267411Y463828D01*
X267008Y462855D01*
X266871Y461811D01*
X267008Y460767D01*
X267411Y459794D01*
X268053Y458958D01*
X268888Y458317D01*
X269861Y457914D01*
X270905Y457777D01*
X271950Y457914D01*
X272923Y458317D01*
X273758Y458958D01*
X274399Y459794D01*
X274803Y460767D01*
X274940Y461811D01*
X274803Y462855D01*
X274399Y463828D01*
X273758Y464664D01*
X272923Y465305D01*
X271950Y465708D01*
X270905Y465846D01*
D02*
G37*
G36*
X270406Y471311D02*
X266937D01*
X267008Y470767D01*
X267411Y469794D01*
X268053Y468958D01*
X268888Y468317D01*
X269861Y467914D01*
X270406Y467842D01*
Y471311D01*
D02*
G37*
G36*
Y475780D02*
X269861Y475708D01*
X268888Y475305D01*
X268053Y474664D01*
X267411Y473828D01*
X267008Y472855D01*
X266937Y472311D01*
X270406D01*
Y475780D01*
D02*
G37*
G36*
X271406D02*
Y472311D01*
X274874D01*
X274803Y472855D01*
X274399Y473828D01*
X273758Y474664D01*
X272923Y475305D01*
X271950Y475708D01*
X271406Y475780D01*
D02*
G37*
G36*
X349874Y471311D02*
X346406D01*
Y467842D01*
X346950Y467914D01*
X347923Y468317D01*
X348758Y468958D01*
X349399Y469794D01*
X349803Y470767D01*
X349874Y471311D01*
D02*
G37*
G36*
X274874D02*
X271406D01*
Y467842D01*
X271950Y467914D01*
X272923Y468317D01*
X273758Y468958D01*
X274399Y469794D01*
X274803Y470767D01*
X274874Y471311D01*
D02*
G37*
G36*
X345406D02*
X341937D01*
X342008Y470767D01*
X342411Y469794D01*
X343053Y468958D01*
X343888Y468317D01*
X344861Y467914D01*
X345406Y467842D01*
Y471311D01*
D02*
G37*
G36*
X165854Y372203D02*
Y370579D01*
X167479D01*
X167409Y370930D01*
X166927Y371651D01*
X166205Y372133D01*
X165854Y372203D01*
D02*
G37*
G36*
X345957D02*
X345606Y372133D01*
X344884Y371651D01*
X344402Y370930D01*
X344332Y370579D01*
X345957D01*
Y372203D01*
D02*
G37*
G36*
X164854D02*
X164503Y372133D01*
X163782Y371651D01*
X163300Y370930D01*
X163230Y370579D01*
X164854D01*
Y372203D01*
D02*
G37*
G36*
X345957Y369579D02*
X344332D01*
X344402Y369228D01*
X344884Y368506D01*
X345606Y368024D01*
X345957Y367954D01*
Y369579D01*
D02*
G37*
G36*
X348581D02*
X346957D01*
Y367954D01*
X347308Y368024D01*
X348029Y368506D01*
X348511Y369228D01*
X348581Y369579D01*
D02*
G37*
G36*
X346957Y372203D02*
Y370579D01*
X348581D01*
X348511Y370930D01*
X348029Y371651D01*
X347308Y372133D01*
X346957Y372203D01*
D02*
G37*
G36*
X257374Y381587D02*
X254315D01*
Y379315D01*
X257374D01*
Y381587D01*
D02*
G37*
G36*
X261433D02*
X258374D01*
Y379315D01*
X261433D01*
Y381587D01*
D02*
G37*
G36*
X316945Y383358D02*
X305496D01*
Y381854D01*
X305496Y381362D01*
Y381358D01*
Y381354D01*
X305496Y380862D01*
Y376854D01*
X305496Y376362D01*
Y376358D01*
Y376354D01*
X305496Y375862D01*
Y371362D01*
X316945D01*
Y375862D01*
X316945Y376354D01*
Y376358D01*
Y376362D01*
X316945Y376854D01*
Y380862D01*
X316945Y381354D01*
Y381358D01*
Y381362D01*
X316945Y381854D01*
Y383358D01*
D02*
G37*
G36*
X239461Y373638D02*
X237189D01*
Y370579D01*
X239461D01*
Y373638D01*
D02*
G37*
G36*
X242732D02*
X240461D01*
Y370579D01*
X242732D01*
Y373638D01*
D02*
G37*
G36*
X167479Y369579D02*
X165854D01*
Y367954D01*
X166205Y368024D01*
X166927Y368506D01*
X167409Y369228D01*
X167479Y369579D01*
D02*
G37*
G36*
X348581Y353831D02*
X346957D01*
Y352206D01*
X347308Y352276D01*
X348029Y352758D01*
X348511Y353480D01*
X348581Y353831D01*
D02*
G37*
G36*
X164854Y356455D02*
X164503Y356385D01*
X163782Y355903D01*
X163300Y355182D01*
X163230Y354831D01*
X164854D01*
Y356455D01*
D02*
G37*
G36*
X345957Y353831D02*
X344332D01*
X344402Y353480D01*
X344884Y352758D01*
X345606Y352276D01*
X345957Y352206D01*
Y353831D01*
D02*
G37*
G36*
X164854D02*
X163230D01*
X163300Y353480D01*
X163782Y352758D01*
X164503Y352276D01*
X164854Y352206D01*
Y353831D01*
D02*
G37*
G36*
X167479D02*
X165854D01*
Y352206D01*
X166205Y352276D01*
X166927Y352758D01*
X167409Y353480D01*
X167479Y353831D01*
D02*
G37*
G36*
X165854Y356455D02*
Y354831D01*
X167479D01*
X167409Y355182D01*
X166927Y355903D01*
X166205Y356385D01*
X165854Y356455D01*
D02*
G37*
G36*
X242732Y369579D02*
X240461D01*
Y366520D01*
X242732D01*
Y369579D01*
D02*
G37*
G36*
X164854Y369579D02*
X163230D01*
X163300Y369228D01*
X163782Y368506D01*
X164503Y368024D01*
X164854Y367954D01*
Y369579D01*
D02*
G37*
G36*
X239461Y369579D02*
X237189D01*
Y366520D01*
X239461D01*
Y369579D01*
D02*
G37*
G36*
X345957Y356455D02*
X345606Y356385D01*
X344884Y355903D01*
X344402Y355182D01*
X344332Y354831D01*
X345957D01*
Y356455D01*
D02*
G37*
G36*
X346957D02*
Y354831D01*
X348581D01*
X348511Y355182D01*
X348029Y355903D01*
X347308Y356385D01*
X346957Y356455D01*
D02*
G37*
G36*
X185118Y396153D02*
X180618D01*
Y392653D01*
X185118D01*
Y396153D01*
D02*
G37*
G36*
X205209D02*
X200709D01*
Y392653D01*
X205209D01*
Y396153D01*
D02*
G37*
G36*
X179618D02*
X175118D01*
Y392653D01*
X179618D01*
Y396153D01*
D02*
G37*
G36*
X270905Y445846D02*
X269861Y445708D01*
X268888Y445305D01*
X268053Y444664D01*
X267411Y443828D01*
X267008Y442855D01*
X266871Y441811D01*
X267008Y440767D01*
X267411Y439794D01*
X268053Y438958D01*
X268888Y438317D01*
X269861Y437914D01*
X270905Y437777D01*
X271942Y437913D01*
X285379Y424477D01*
Y397161D01*
X283646D01*
Y390437D01*
X291158D01*
Y397161D01*
X289425D01*
Y425315D01*
X289271Y426089D01*
X288832Y426746D01*
X274803Y440774D01*
X274940Y441811D01*
X274803Y442855D01*
X274399Y443828D01*
X273758Y444664D01*
X272923Y445305D01*
X271950Y445708D01*
X270905Y445846D01*
D02*
G37*
G36*
X332299Y396354D02*
X320850D01*
Y391854D01*
X320850Y391362D01*
Y391358D01*
Y391354D01*
X320850Y390862D01*
Y386854D01*
X320850Y386362D01*
Y386358D01*
Y386354D01*
X320850Y385862D01*
Y381854D01*
X320850Y381362D01*
X320850Y380919D01*
Y380862D01*
Y376854D01*
Y376798D01*
X320850Y376354D01*
X320850Y375862D01*
Y371362D01*
X332299D01*
Y371835D01*
X337685D01*
X337732Y371804D01*
X338583Y371634D01*
X339434Y371804D01*
X340155Y372286D01*
X340637Y373007D01*
X340806Y373858D01*
X340637Y374709D01*
X340155Y375431D01*
X339434Y375913D01*
X338583Y376082D01*
X337732Y375913D01*
X337685Y375881D01*
X332346D01*
X332346Y375882D01*
X332299Y376362D01*
X332299Y376854D01*
Y380862D01*
X332299Y381354D01*
X332346Y381835D01*
X337685D01*
X337732Y381804D01*
X338583Y381634D01*
X339434Y381804D01*
X340155Y382286D01*
X340637Y383007D01*
X340806Y383858D01*
X340637Y384709D01*
X340155Y385431D01*
X339434Y385913D01*
X338583Y386082D01*
X337732Y385913D01*
X337685Y385881D01*
X332346D01*
X332346Y385881D01*
X332299Y386358D01*
X332346Y386835D01*
X337685D01*
X337732Y386804D01*
X338583Y386634D01*
X339434Y386804D01*
X340155Y387286D01*
X340637Y388007D01*
X340806Y388858D01*
X340637Y389709D01*
X340155Y390431D01*
X339434Y390913D01*
X338583Y391082D01*
X337732Y390913D01*
X337685Y390881D01*
X332346D01*
X332346Y390881D01*
X332299Y391358D01*
X332346Y391835D01*
X333748D01*
X333795Y391804D01*
X334646Y391634D01*
X335497Y391804D01*
X336218Y392286D01*
X336700Y393007D01*
X336869Y393858D01*
X336700Y394709D01*
X336218Y395431D01*
X335497Y395913D01*
X334646Y396082D01*
X333795Y395913D01*
X333748Y395881D01*
X332299D01*
Y396354D01*
D02*
G37*
G36*
X210709Y396153D02*
X206209D01*
Y392653D01*
X210709D01*
Y396153D01*
D02*
G37*
G36*
Y400654D02*
X206209D01*
Y397153D01*
X210709D01*
Y400654D01*
D02*
G37*
G36*
X164854Y401075D02*
X163230D01*
X163300Y400724D01*
X163782Y400002D01*
X164503Y399520D01*
X164854Y399450D01*
Y401075D01*
D02*
G37*
G36*
X205209Y400654D02*
X200709D01*
Y397153D01*
X205209D01*
Y400654D01*
D02*
G37*
G36*
X179618D02*
X175118D01*
Y397153D01*
X179618D01*
Y400654D01*
D02*
G37*
G36*
X185118D02*
X180618D01*
Y397153D01*
X185118D01*
Y400654D01*
D02*
G37*
G36*
X270905Y435846D02*
X269861Y435708D01*
X268888Y435305D01*
X268053Y434664D01*
X267411Y433828D01*
X267008Y432855D01*
X266871Y431811D01*
X267008Y430767D01*
X267411Y429794D01*
X268053Y428958D01*
X268888Y428317D01*
X269861Y427914D01*
X270905Y427777D01*
X271942Y427913D01*
X273567Y426288D01*
Y397161D01*
X271835D01*
Y390437D01*
X279346D01*
Y397161D01*
X277614D01*
Y427126D01*
X277460Y427900D01*
X277021Y428557D01*
X274803Y430774D01*
X274940Y431811D01*
X274803Y432855D01*
X274399Y433828D01*
X273758Y434664D01*
X272923Y435305D01*
X271950Y435708D01*
X270905Y435846D01*
D02*
G37*
G36*
X257374Y384858D02*
X254315D01*
Y382587D01*
X257374D01*
Y384858D01*
D02*
G37*
G36*
X261433D02*
X258374D01*
Y382587D01*
X261433D01*
Y384858D01*
D02*
G37*
G36*
X245382Y384268D02*
Y382587D01*
X249425D01*
Y384268D01*
X245382D01*
D02*
G37*
G36*
X244382Y381587D02*
X240338D01*
Y379906D01*
X244382D01*
Y381587D01*
D02*
G37*
G36*
X249425D02*
X245382D01*
Y379906D01*
X249425D01*
Y381587D01*
D02*
G37*
G36*
X164854Y385327D02*
X163230D01*
X163300Y384976D01*
X163782Y384254D01*
X164503Y383772D01*
X164854Y383702D01*
Y385327D01*
D02*
G37*
G36*
X165854Y387951D02*
Y386327D01*
X167479D01*
X167409Y386678D01*
X166927Y387399D01*
X166205Y387881D01*
X165854Y387951D01*
D02*
G37*
G36*
X270905Y485846D02*
X269861Y485708D01*
X268888Y485305D01*
X268053Y484664D01*
X267411Y483828D01*
X267008Y482855D01*
X266871Y481811D01*
X267007Y480774D01*
X256443Y470210D01*
X256005Y469554D01*
X255851Y468780D01*
Y392338D01*
X254315D01*
Y391590D01*
X249425D01*
Y391748D01*
X240338D01*
Y388340D01*
X239976Y388008D01*
X239839Y388008D01*
X230890D01*
Y385246D01*
X230611Y384829D01*
X230457Y384055D01*
Y373638D01*
X229709D01*
Y372102D01*
X225409D01*
Y376000D01*
X219472D01*
Y364158D01*
X225409D01*
Y368056D01*
X229709D01*
Y366520D01*
X235252D01*
Y373638D01*
X234503D01*
Y383217D01*
X234932Y383646D01*
X239839D01*
X239976Y383646D01*
X240338Y383313D01*
X240338Y383313D01*
Y382587D01*
X244382D01*
Y384268D01*
X240476D01*
X240338Y384268D01*
X239976Y384600D01*
Y387053D01*
X239977Y387053D01*
X240338Y387386D01*
X240476Y387386D01*
X249425D01*
Y387544D01*
X254315D01*
Y386795D01*
X261433D01*
Y392338D01*
X259897D01*
Y467942D01*
X269869Y477913D01*
X270905Y477777D01*
X271942Y477913D01*
X309197Y440658D01*
Y396354D01*
X305496D01*
Y395881D01*
X303307D01*
X302533Y395727D01*
X301876Y395289D01*
X299475Y392887D01*
X299036Y392231D01*
X298882Y391457D01*
Y345370D01*
X297346D01*
Y338252D01*
X304465D01*
Y345370D01*
X302929D01*
Y390619D01*
X304145Y391835D01*
X305450D01*
X305496Y391354D01*
X305496Y390862D01*
Y389358D01*
X316945D01*
Y390862D01*
X316945Y391354D01*
Y391358D01*
Y391362D01*
X316945Y391854D01*
Y396354D01*
X313244D01*
Y441496D01*
X313089Y442270D01*
X312651Y442927D01*
X274803Y480774D01*
X274940Y481811D01*
X274803Y482855D01*
X274399Y483828D01*
X273758Y484664D01*
X272923Y485305D01*
X271950Y485708D01*
X270905Y485846D01*
D02*
G37*
G36*
X164854Y387951D02*
X164503Y387881D01*
X163782Y387399D01*
X163300Y386678D01*
X163230Y386327D01*
X164854D01*
Y387951D01*
D02*
G37*
G36*
X167479Y385327D02*
X165854D01*
Y383702D01*
X166205Y383772D01*
X166927Y384254D01*
X167409Y384976D01*
X167479Y385327D01*
D02*
G37*
G36*
X316945Y388358D02*
X305496D01*
Y386854D01*
X305496Y386362D01*
Y386358D01*
Y386354D01*
X305496Y385862D01*
Y384358D01*
X316945D01*
Y385862D01*
X316945Y386354D01*
Y386358D01*
Y386362D01*
X316945Y386854D01*
Y388358D01*
D02*
G37*
%LPD*%
D10*
X326575Y383858D02*
D03*
X311220D02*
D03*
Y378858D02*
D03*
X326575D02*
D03*
X311220Y373858D02*
D03*
X326575D02*
D03*
X311220Y388858D02*
D03*
X326575D02*
D03*
X311220Y393858D02*
D03*
X326575D02*
D03*
D11*
X287402Y385728D02*
D03*
Y393799D02*
D03*
X275590Y385728D02*
D03*
Y393799D02*
D03*
D12*
X239961Y370079D02*
D03*
X232480D02*
D03*
X239961D02*
D03*
X232480D02*
D03*
D13*
X235433Y385827D02*
D03*
X244882Y389567D02*
D03*
Y382087D02*
D03*
D14*
X210630Y370079D02*
D03*
X222441D02*
D03*
D15*
X257874Y382087D02*
D03*
Y389567D02*
D03*
Y382087D02*
D03*
Y389567D02*
D03*
D16*
X240905Y341811D02*
X263661Y364567D01*
X275590D01*
X249227Y354331D02*
X263794Y368898D01*
X275590D01*
X257874Y468780D02*
X270905Y481811D01*
X257874Y389567D02*
Y468780D01*
X244291Y389567D02*
X255906D01*
X244291Y389567D02*
X244291Y389567D01*
X330512Y388858D02*
X338583D01*
X270905Y481811D02*
X311220Y441496D01*
Y393858D02*
Y441496D01*
X303307Y393858D02*
X311220D01*
X300905Y391457D02*
X303307Y393858D01*
X300905Y341811D02*
Y391457D01*
X243425Y354331D02*
X249227D01*
X230906Y341811D02*
X243425Y354331D01*
X275590Y356496D02*
Y360236D01*
X260906Y341811D02*
X275590Y356496D01*
X330512Y393858D02*
X334646D01*
X330512Y383858D02*
X338583D01*
X330512Y373858D02*
X338583D01*
X220905Y341811D02*
X237362Y358268D01*
X248130D01*
X275590Y385728D01*
X280906Y379232D02*
X287402Y385728D01*
X280906Y341811D02*
Y379232D01*
X270905Y441811D02*
X287402Y425315D01*
Y393799D02*
Y425315D01*
X270905Y431811D02*
X275590Y427126D01*
Y393799D02*
Y427126D01*
X234252Y385827D02*
X236024D01*
X232480Y384055D02*
X234252Y385827D01*
X232480Y370079D02*
Y384055D01*
X222441Y370079D02*
X232480D01*
X210906Y341811D02*
Y369803D01*
D17*
X180118Y414370D02*
X205709D01*
Y452008D01*
X165905Y491811D02*
X205709Y452008D01*
X210630Y370079D02*
X210906Y369803D01*
D18*
X270905Y441811D02*
D03*
Y501811D02*
D03*
X240905Y431811D02*
D03*
Y491811D02*
D03*
X270905D02*
D03*
Y481811D02*
D03*
X240905D02*
D03*
Y471811D02*
D03*
X270905D02*
D03*
Y461811D02*
D03*
X240905D02*
D03*
Y451811D02*
D03*
X270905D02*
D03*
Y431811D02*
D03*
X240905Y441811D02*
D03*
X345905Y431811D02*
D03*
Y441811D02*
D03*
Y451811D02*
D03*
Y461811D02*
D03*
Y471811D02*
D03*
Y481811D02*
D03*
Y491811D02*
D03*
X165905Y431811D02*
D03*
Y441811D02*
D03*
Y451811D02*
D03*
Y461811D02*
D03*
Y471811D02*
D03*
Y481811D02*
D03*
Y491811D02*
D03*
D19*
X240905Y501811D02*
D03*
X345905D02*
D03*
X165905D02*
D03*
D20*
X180118Y414370D02*
D03*
X205709D02*
D03*
D21*
X180118Y396654D02*
D03*
X205709D02*
D03*
D22*
X240905Y331811D02*
D03*
Y341811D02*
D03*
X230906D02*
D03*
Y331811D02*
D03*
X220905D02*
D03*
Y341811D02*
D03*
X210906D02*
D03*
Y331811D02*
D03*
X250905Y341811D02*
D03*
Y331811D02*
D03*
X260906D02*
D03*
Y341811D02*
D03*
X270905D02*
D03*
Y331811D02*
D03*
X280906D02*
D03*
Y341811D02*
D03*
X290905D02*
D03*
Y331811D02*
D03*
X300905D02*
D03*
D23*
Y341811D02*
D03*
D24*
X346457Y417323D02*
D03*
Y370079D02*
D03*
Y354331D02*
D03*
Y338583D02*
D03*
Y322835D02*
D03*
X334646D02*
D03*
X322835D02*
D03*
X307087D02*
D03*
X291338D02*
D03*
X275590D02*
D03*
X259842D02*
D03*
X244094D02*
D03*
X228346D02*
D03*
X212598D02*
D03*
X196850D02*
D03*
X165354Y417323D02*
D03*
Y401575D02*
D03*
Y385827D02*
D03*
Y370079D02*
D03*
Y354331D02*
D03*
Y338583D02*
D03*
X181102Y322835D02*
D03*
X165354D02*
D03*
X338583Y388858D02*
D03*
X275590Y368898D02*
D03*
Y364567D02*
D03*
Y360236D02*
D03*
X338583Y373858D02*
D03*
Y383858D02*
D03*
X334646Y393858D02*
D03*
M02*
