M48
;Layer_Color=6321
;FILE_FORMAT=2:5
INCH,LZ
;TYPE=PLATED
T1F00S00C0.01181
T2F00S00C0.03000
T3F00S00C0.03740
T4F00S00C0.03937
T5F00S00C0.04000
%
T01
X0165354Y0322835
Y0338583
Y0354331
Y0370079
Y0385827
Y0401575
Y0417323
X0181102Y0322835
X019685
X0212598
X0228346
X0244094
X0259842
X027559
X0291338
X0307087
X027559Y0360236
Y0364567
Y0368898
X0338583Y0373858
Y0383858
Y0388858
X0334646Y0393858
X0346457Y0417323
Y0370079
Y0354331
Y0338583
Y0322835
X0334646
X0322835
T02
X0240905Y0431811
Y0441811
Y0451811
Y0461811
X0270905
Y0451811
Y0441811
Y0431811
Y0471811
Y0481811
Y0491811
Y0501811
X0240905
Y0491811
Y0481811
Y0471811
T03
X0210906Y0331811
X0220905
X0230906
X0240905
Y0341811
X0230906
X0220905
X0210906
X0250905
Y0331811
X0260906
Y0341811
X0270905
Y0331811
X0280906
Y0341811
X0290905
Y0331811
X0300905
Y0341811
T04
X0180118Y0396654
Y041437
X0205709
Y0396654
T05
X0165905Y0431811
Y0441811
Y0451811
Y0461811
X0345905
Y0451811
Y0441811
Y0431811
Y0471811
Y0481811
Y0491811
Y0501811
X0165905
Y0491811
Y0481811
Y0471811
M30
